<svg width="24" height="24" viewBox="0 0 24 24" fill="none" xmlns="http://www.w3.org/2000/svg">
<g id="Iconography">
<path id="Vector" d="M17.5 2H6.5C5.83715 2.00061 5.20161 2.2642 4.73291 2.73291C4.2642 3.20161 4.00061 3.83715 4 4.5V19.5C4.00061 20.1629 4.2642 20.7984 4.73291 21.2671C5.20161 21.7358 5.83715 21.9994 6.5 22H17.5C18.1629 21.9994 18.7984 21.7358 19.2671 21.2671C19.7358 20.7984 19.9994 20.1629 20 19.5V4.5C19.9994 3.83715 19.7358 3.20161 19.2671 2.73291C18.7984 2.2642 18.1629 2.00061 17.5 2ZM11.5 16H8.5C8.36739 16 8.24021 15.9473 8.14645 15.8536C8.05268 15.7598 8 15.6326 8 15.5C8 15.3674 8.05268 15.2402 8.14645 15.1464C8.24021 15.0527 8.36739 15 8.5 15H11.5C11.6326 15 11.7598 15.0527 11.8536 15.1464C11.9473 15.2402 12 15.3674 12 15.5C12 15.6326 11.9473 15.7598 11.8536 15.8536C11.7598 15.9473 11.6326 16 11.5 16ZM15.5 13H8.5C8.36739 13 8.24021 12.9473 8.14645 12.8536C8.05268 12.7598 8 12.6326 8 12.5C8 12.3674 8.05268 12.2402 8.14645 12.1464C8.24021 12.0527 8.36739 12 8.5 12H15.5C15.6326 12 15.7598 12.0527 15.8536 12.1464C15.9473 12.2402 16 12.3674 16 12.5C16 12.6326 15.9473 12.7598 15.8536 12.8536C15.7598 12.9473 15.6326 13 15.5 13ZM15.5 10H8.5C8.36739 10 8.24021 9.94732 8.14645 9.85355C8.05268 9.75979 8 9.63261 8 9.5C8 9.36739 8.05268 9.24021 8.14645 9.14645C8.24021 9.05268 8.36739 9 8.5 9H15.5C15.6326 9 15.7598 9.05268 15.8536 9.14645C15.9473 9.24021 16 9.36739 16 9.5C16 9.63261 15.9473 9.75979 15.8536 9.85355C15.7598 9.94732 15.6326 10 15.5 10ZM15.5 7H8.5C8.36739 7 8.24021 6.94732 8.14645 6.85355C8.05268 6.75979 8 6.63261 8 6.5C8 6.36739 8.05268 6.24021 8.14645 6.14645C8.24021 6.05268 8.36739 6 8.5 6H15.5C15.6326 6 15.7598 6.05268 15.8536 6.14645C15.9473 6.24021 16 6.36739 16 6.5C16 6.63261 15.9473 6.75979 15.8536 6.85355C15.7598 6.94732 15.6326 7 15.5 7Z" fill="#D0D2D6"/>
</g>
</svg>
