<svg width="24" height="24" viewBox="0 0 24 24" fill="none" xmlns="http://www.w3.org/2000/svg">
<g id="Iconography">
<path id="Vector" d="M20.7885 9.09136L12.2886 3.09136C12.2041 3.03179 12.1033 2.99982 12 2.99982C11.8967 2.99982 11.7959 3.03179 11.7114 3.09136L3.21145 9.09136C3.14613 9.13763 3.09284 9.19888 3.05605 9.26998C3.01926 9.34108 3.00004 9.41995 3 9.50001V20.5C2.99996 20.5657 3.01287 20.6307 3.03798 20.6914C3.06309 20.7521 3.09992 20.8072 3.14636 20.8536C3.1928 20.9001 3.24793 20.9369 3.30861 20.962C3.36929 20.9871 3.43433 21 3.5 21H9C9.06567 21 9.13071 20.9871 9.19139 20.962C9.25207 20.9369 9.3072 20.9001 9.35364 20.8536C9.40008 20.8072 9.43691 20.7521 9.46202 20.6914C9.48713 20.6307 9.50004 20.5657 9.5 20.5V14.5H14.5V20.5C14.5 20.5657 14.5129 20.6307 14.538 20.6914C14.5631 20.7521 14.5999 20.8072 14.6464 20.8536C14.6928 20.9001 14.7479 20.9369 14.8086 20.962C14.8693 20.9871 14.9343 21 15 21H20.5C20.5657 21 20.6307 20.9871 20.6914 20.962C20.7521 20.9369 20.8072 20.9001 20.8536 20.8536C20.9001 20.8072 20.9369 20.7521 20.962 20.6914C20.9871 20.6307 21 20.5657 21 20.5V9.50001C21 9.41995 20.9807 9.34108 20.944 9.26998C20.9072 9.19888 20.8539 9.13763 20.7885 9.09136Z" fill="white"/>
</g>
</svg>
