<svg width="24" height="24" viewBox="0 0 24 24" fill="none" xmlns="http://www.w3.org/2000/svg">
<g id="Iconography">
<g id="Group">
<path id="Vector" d="M12 4C12.3 4 12.5 3.8 12.5 3.5V1.5C12.5 1.2 12.3 1 12 1C11.7 1 11.5 1.2 11.5 1.5V3.5C11.5 3.8 11.7 4 12 4Z" fill="#D0D2D6"/>
<path id="Vector_2" d="M13.5 21.5H10.5C10.2 21.5 10 21.7 10 22C10 22.3 10.2 22.5 10.5 22.5H13.5C13.8 22.5 14 22.3 14 22C14 21.7 13.8 21.5 13.5 21.5Z" fill="#D0D2D6"/>
<path id="Vector_3" d="M12 5.5C8.4 5.5 5.5 8.4 5.5 12C5.5 14.45 6.85 16.65 9 17.75V20C9 20.3 9.2 20.5 9.5 20.5H14.5C14.8 20.5 15 20.3 15 20V17.75C18.2 16.1 19.4 12.15 17.75 9C16.65 6.85 14.45 5.5 12 5.5Z" fill="#D0D2D6"/>
<path id="Vector_4" d="M5.34999 6.04999C5.54999 6.24999 5.84999 6.24999 6.04999 6.04999C6.24999 5.84999 6.24999 5.54999 6.04999 5.34999L4.64999 3.94999C4.44999 3.74999 4.14999 3.74999 3.94999 3.94999C3.74999 4.14999 3.74999 4.44999 3.94999 4.64999L5.34999 6.04999Z" fill="#D0D2D6"/>
<path id="Vector_5" d="M18.3 6.19999C18.45 6.19999 18.55 6.14999 18.65 6.04999L20.05 4.64999C20.25 4.44999 20.25 4.14999 20.05 3.94999C19.85 3.74999 19.55 3.74999 19.35 3.94999L17.95 5.34999C17.75 5.54999 17.75 5.84999 17.95 6.04999C18.05 6.14999 18.15 6.19999 18.3 6.19999Z" fill="#D0D2D6"/>
<path id="Vector_6" d="M4 12C4 11.7 3.8 11.5 3.5 11.5H1.5C1.2 11.5 1 11.7 1 12C1 12.3 1.2 12.5 1.5 12.5H3.5C3.8 12.5 4 12.3 4 12Z" fill="#D0D2D6"/>
<path id="Vector_7" d="M22.5 11.5H20.5C20.2 11.5 20 11.7 20 12C20 12.3 20.2 12.5 20.5 12.5H22.5C22.8 12.5 23 12.3 23 12C23 11.7 22.8 11.5 22.5 11.5Z" fill="#D0D2D6"/>
<path id="Vector_8" d="M21.1 18.05L19.35 17.05C19.1 16.9 18.8 17 18.65 17.2C18.5 17.4 18.6 17.75 18.8 17.9L20.55 18.9C20.8 19.05 21.1 18.95 21.25 18.75C21.4 18.55 21.35 18.2 21.1 18.05C21.15 18.05 21.1 18.05 21.1 18.05Z" fill="#D0D2D6"/>
<path id="Vector_9" d="M4.60001 17.05L2.85001 18.05C2.60001 18.2 2.50001 18.5 2.65001 18.75C2.80001 19 3.10001 19.1 3.35001 18.95L5.10001 17.95C5.35001 17.8 5.45001 17.5 5.30001 17.25C5.15001 17 4.85001 16.9 4.60001 17.05C4.65001 17.05 4.60001 17.05 4.60001 17.05Z" fill="#D0D2D6"/>
</g>
</g>
</svg>
