<svg width="24" height="24" viewBox="0 0 24 24" fill="none" xmlns="http://www.w3.org/2000/svg">
<g id="Iconography">
<path id="Vector" d="M20.7129 6.5481L12.2129 2.5481C12.1464 2.51627 12.0737 2.49976 12 2.49976C11.9263 2.49976 11.8536 2.51627 11.7871 2.5481L3.2871 6.5481C3.20125 6.58842 3.12866 6.65236 3.07782 6.73243C3.02697 6.8125 2.99998 6.9054 3 7.00025C3 11.8244 4.47605 18.2258 11.5069 21.3252C11.6219 21.376 11.7134 21.416 11.7764 21.4473C11.8458 21.482 11.9224 21.5 12 21.5C12.0776 21.5 12.1542 21.482 12.2236 21.4473C12.2866 21.416 12.3779 21.376 12.4931 21.3252C19.5239 18.2258 21 11.8244 21 7.00025C21 6.9054 20.973 6.8125 20.9222 6.73243C20.8713 6.65236 20.7987 6.58842 20.7129 6.5481ZM15.3486 9.9981L11.9761 13.7988C11.9219 13.8597 11.856 13.9088 11.7823 13.9434C11.7086 13.978 11.6287 13.9973 11.5473 14H11.5274C11.3696 14.0001 11.2182 13.938 11.106 13.8272L9.1787 11.927C9.12227 11.8717 9.07731 11.8059 9.04639 11.7332C9.01548 11.6605 8.99922 11.5825 8.99855 11.5035C8.99788 11.4245 9.01282 11.3462 9.04251 11.273C9.07219 11.1998 9.11604 11.1332 9.17153 11.077C9.22702 11.0209 9.29306 10.9762 9.36586 10.9456C9.43867 10.915 9.5168 10.899 9.59578 10.8987C9.67475 10.8984 9.75301 10.9136 9.82607 10.9436C9.89913 10.9736 9.96554 11.0178 10.0215 11.0735L11.4986 12.5295L14.4511 9.2014C14.5568 9.08238 14.7055 9.01022 14.8643 9.00078C15.0232 8.99135 15.1793 9.04542 15.2984 9.1511C15.4174 9.25677 15.4895 9.4054 15.499 9.56428C15.5084 9.72316 15.4543 9.87928 15.3486 9.9983V9.9981Z" fill="#D0D2D6"/>
</g>
</svg>
